<?xml version="1.0" encoding="UTF-8" standalone="no"?>
<svg
   id="Layer_1"
   version="1.1"
   viewBox="0 0 612 792"
   sodipodi:docname="algo-2.svg"
   inkscape:version="1.1 (c68e22c387, 2021-05-23)"
   xmlns:inkscape="http://www.inkscape.org/namespaces/inkscape"
   xmlns:sodipodi="http://sodipodi.sourceforge.net/DTD/sodipodi-0.dtd"
   xmlns="http://www.w3.org/2000/svg"
   xmlns:svg="http://www.w3.org/2000/svg">
  <sodipodi:namedview
     id="namedview1542"
     pagecolor="#ffffff"
     bordercolor="#666666"
     borderopacity="1.0"
     inkscape:pageshadow="2"
     inkscape:pageopacity="0.0"
     inkscape:pagecheckerboard="0"
     showgrid="false"
     inkscape:zoom="2"
     inkscape:cx="52.25"
     inkscape:cy="214.25"
     inkscape:window-width="1920"
     inkscape:window-height="1051"
     inkscape:window-x="-9"
     inkscape:window-y="-9"
     inkscape:window-maximized="1"
     inkscape:current-layer="Layer_1" />
  <!-- Generator: Adobe Illustrator 29.1.0, SVG Export Plug-In . SVG Version: 2.1.0 Build 142)  -->
  <defs
     id="defs1209">
    <marker
       style="overflow:visible;"
       id="marker4212"
       refX="0.0"
       refY="0.0"
       orient="auto"
       inkscape:stockid="Arrow2Lend"
       inkscape:isstock="true">
      <path
         transform="scale(1.1) rotate(180) translate(1,0)"
         d="M 8.7185878,4.0337352 L -2.2072895,0.016013256 L 8.7185884,-4.0017078 C 6.9730900,-1.6296469 6.9831476,1.6157441 8.7185878,4.0337352 z "
         style="fill-rule:evenodd;fill:context-stroke;stroke-width:0.62500000;stroke-linejoin:round;"
         id="path4210" />
    </marker>
    <marker
       style="overflow:visible;"
       id="marker3655"
       refX="0.0"
       refY="0.0"
       orient="auto"
       inkscape:stockid="Arrow2Lend"
       inkscape:isstock="true">
      <path
         transform="scale(1.1) rotate(180) translate(1,0)"
         d="M 8.7185878,4.0337352 L -2.2072895,0.016013256 L 8.7185884,-4.0017078 C 6.9730900,-1.6296469 6.9831476,1.6157441 8.7185878,4.0337352 z "
         style="fill-rule:evenodd;fill:context-stroke;stroke-width:0.62500000;stroke-linejoin:round;"
         id="path3653" />
    </marker>
    <marker
       style="overflow:visible;"
       id="Arrow2Lend"
       refX="0.0"
       refY="0.0"
       orient="auto"
       inkscape:stockid="Arrow2Lend"
       inkscape:isstock="true">
      <path
         transform="scale(1.1) rotate(180) translate(1,0)"
         d="M 8.7185878,4.0337352 L -2.2072895,0.016013256 L 8.7185884,-4.0017078 C 6.9730900,-1.6296469 6.9831476,1.6157441 8.7185878,4.0337352 z "
         style="fill-rule:evenodd;fill:context-stroke;stroke-width:0.62500000;stroke-linejoin:round;"
         id="path3406" />
    </marker>
    <marker
       style="overflow:visible;"
       id="Arrow1Lend"
       refX="0.0"
       refY="0.0"
       orient="auto"
       inkscape:stockid="Arrow1Lend"
       inkscape:isstock="true">
      <path
         transform="scale(0.8) rotate(180) translate(12.5,0)"
         style="fill-rule:evenodd;fill:context-stroke;stroke:context-stroke;stroke-width:1.0pt;"
         d="M 0.0,0.0 L 5.0,-5.0 L -12.5,0.0 L 5.0,5.0 L 0.0,0.0 z "
         id="path20603" />
    </marker>
    <style
       id="style1207">
      .st0 {
        fill: #00a651;
        stroke: #00a651;
      }

      .st0, .st1, .st2, .st3, .st4, .st5, .st6, .st7, .st8, .st9, .st10, .st11 {
        stroke-miterlimit: 10;
      }

      .st0, .st1, .st4 {
        fill-opacity: 0;
      }

      .st12, .st13 {
        fill: #231f20;
      }

      .st1, .st3 {
        fill: #27aae1;
        stroke: #00aeef;
      }

      .st14, .st2 {
        fill: #fff;
      }

      .st2, .st6, .st7, .st8, .st10, .st11 {
        stroke: #231f20;
      }

      .st4 {
        fill: #ec008c;
        stroke: #ec008c;
      }

      .st5 {
        stroke: #ed1c24;
      }

      .st5, .st11 {
        fill: #ed1c24;
      }

      .st6 {
        stroke-dasharray: 3;
      }

      .st6, .st7, .st8, .st9, .st10 {
        fill: none;
      }

      .st7 {
        stroke-dasharray: 3 3;
      }

      .st8 {
        stroke-dasharray: 1 1;
      }

      .st13 {
        font-family: MyriadPro-Regular, 'Myriad Pro';
        font-size: 12px;
      }

      .st9 {
        stroke: #808285;
      }
    </style>
    <marker
       style="overflow:visible"
       id="Arrow1Lend-9"
       refX="0"
       refY="0"
       orient="auto"
       inkscape:stockid="Arrow1Lend"
       inkscape:isstock="true">
      <path
         transform="matrix(-0.8,0,0,-0.8,-10,0)"
         style="fill:context-stroke;fill-rule:evenodd;stroke:context-stroke;stroke-width:1pt"
         d="M 0,0 5,-5 -12.5,0 5,5 Z"
         id="path20603-5" />
    </marker>
  </defs>
  <circle
     class="st2"
     cx="42.1"
     cy="114.7"
     r="5.4"
     id="circle1211" />
  <circle
     class="st2"
     cx="99.8"
     cy="114.7"
     r="5.4"
     id="circle1213" />
  <circle
     class="st2"
     cx="57.7"
     cy="151.8"
     r="5.4"
     id="circle1215" />
  <circle
     class="st2"
     cx="94.4"
     cy="184"
     r="5.4"
     id="circle1217" />
  <circle
     class="st2"
     cx="146.2"
     cy="114.7"
     r="5.4"
     id="circle1219" />
  <g
     id="g1229">
    <line
       class="st14"
       x1="28.8"
       y1="62.3"
       x2="40.1"
       y2="109.7"
       id="line1221" />
    <g
       id="g1227">
      <line
         class="st10"
         x1="28.8"
         y1="62.3"
         x2="38.8"
         y2="104.6"
         id="line1223" />
      <polygon
         class="st12"
         points="36.9 103.8 40.1 109.7 40.3 103 36.9 103.8"
         id="polygon1225" />
    </g>
  </g>
  <g
     id="g1239">
    <line
       class="st14"
       x1="102"
       y1="60.6"
       x2="100.4"
       y2="109.3"
       id="line1231" />
    <g
       id="g1237">
      <line
         class="st10"
         x1="102"
         y1="60.6"
         x2="100.6"
         y2="104"
         id="line1233" />
      <polygon
         class="st12"
         points="98.8 102.8 100.4 109.3 102.3 102.9 98.8 102.8"
         id="polygon1235" />
    </g>
  </g>
  <g
     id="g1249">
    <path
       class="st14"
       d="M146.2,120.1c-1,43-2.1,85.9-3.1,128.9"
       id="path1241" />
    <g
       id="g1247">
      <path
         class="st10"
         d="M146.2,120.1c-1,41.2-2,82.4-3,123.6"
         id="path1243" />
      <polygon
         class="st12"
         points="141.5 242.5 143.1 249 145 242.5 141.5 242.5"
         id="polygon1245" />
    </g>
  </g>
  <g
     id="g1259">
    <line
       class="st14"
       x1="160.8"
       y1="64.6"
       x2="146.2"
       y2="111.1"
       id="line1251" />
    <g
       id="g1257">
      <line
         class="st10"
         x1="160.8"
         y1="64.6"
         x2="147.8"
         y2="106"
         id="line1253" />
      <polygon
         class="st12"
         points="146.5 104.3 146.2 111.1 149.8 105.4 146.5 104.3"
         id="polygon1255" />
    </g>
  </g>
  <g
     id="g1269">
    <path
       class="st14"
       d="M42.1,120.1c4.5,8.8,8.9,17.5,13.4,26.3"
       id="path1261" />
    <g
       id="g1267">
      <path
         class="st10"
         d="m 42.1,120.1 c 3.7,7.2 9.7,19.1 13.4,26.3"
         id="path1263"
         style="marker-end:url(#marker4212)"
         sodipodi:nodetypes="cc" />
      <polygon
         class="st12"
         points="51 141.4 55.5 146.4 54.1 139.8 51 141.4"
         id="polygon1265" />
    </g>
  </g>
  <g
     id="g1279">
    <path
       class="st14"
       d="M99.8,120.1c-1.8,19.5-3.6,39-5.4,58.5"
       id="path1271" />
    <g
       id="g1277">
      <path
         class="st10"
         d="m 99.8,120.1 c -14.769864,9.96602 -14.702097,9.95576 -38.752737,24.82734"
         id="path1273"
         sodipodi:nodetypes="cc"
         style="stroke-width:1;stroke-miterlimit:9.7;stroke-dasharray:none;marker-end:url(#marker3655)" />
      <polygon
         class="st12"
         points="94.4,178.6 96.8,172.3 93.3,172 "
         id="polygon1275"
         style="display:none" />
    </g>
  </g>
  <g
     id="g1289">
    <path
       class="st14"
       d="M63.1,155.2c9.1,8.5,18.1,16.9,27.2,25.4"
       id="path1281" />
    <g
       id="g1287">
      <path
         class="st10"
         d="M63.1,155.2c7.8,7.2,15.5,14.5,23.3,21.7"
         id="path1283" />
      <polygon
         class="st12"
         points="84.4 177.4 90.3 180.5 86.7 174.8 84.4 177.4"
         id="polygon1285" />
    </g>
  </g>
  <g
     id="g1299">
    <path
       class="st14"
       d="M142.5,119.7c-14.5,20.4-29,40.9-43.6,61.3"
       id="path1291" />
    <g
       id="g1297">
      <path
         class="st10"
         d="m 142.5,119.7 c -26.13733,9.44111 -50.921811,19.52687 -77.623106,30.74866"
         id="path1293"
         sodipodi:nodetypes="cc"
         style="marker-end:url(#Arrow2Lend)" />
      <polygon
         class="st12"
         points="98.9,181 104.1,176.7 101.3,174.7 "
         id="polygon1295"
         style="display:none" />
    </g>
  </g>
  <g
     id="g1309">
    <line
       class="st14"
       x1="95.6"
       y1="189.4"
       x2="94.4"
       y2="249"
       id="line1301" />
    <g
       id="g1307">
      <line
         class="st10"
         x1="95.6"
         y1="189.4"
         x2="94.5"
         y2="243.7"
         id="line1303" />
      <polygon
         class="st12"
         points="92.8 242.5 94.4 249 96.3 242.5 92.8 242.5"
         id="polygon1305" />
    </g>
  </g>
  <rect
     class="st1"
     x="16.8"
     y="99.7"
     width="167.7"
     height="25.3"
     id="rect1311" />
  <rect
     class="st0"
     x="16.8"
     y="143.7"
     width="167.7"
     height="17.3"
     id="rect1313" />
  <path
     class="st2"
     d="M219.2,201"
     id="path1315" />
  <rect
     class="st4"
     x="16.8"
     y="170"
     width="167.7"
     height="22"
     id="rect1317" />
  <ellipse
     class="st2"
     cx="42.88895"
     cy="405.75891"
     id="circle1319"
     rx="5.5651069"
     ry="5.5825939"
     style="stroke-width:1.03219" />
  <ellipse
     class="st2"
     cx="102.35315"
     cy="405.75891"
     id="circle1321"
     rx="5.5651069"
     ry="5.5825939"
     style="stroke-width:1.03219" />
  <ellipse
     class="st2"
     cx="58.965927"
     cy="444.1134"
     id="circle1323"
     rx="5.5651069"
     ry="5.5825939"
     style="stroke-width:1.03219" />
  <ellipse
     class="st2"
     cx="96.78804"
     cy="477.40225"
     id="circle1325"
     rx="5.5651069"
     ry="5.5825939"
     style="stroke-width:1.03219" />
  <ellipse
     class="st2"
     cx="150.17184"
     cy="379.2933"
     id="circle1327"
     rx="5.5651069"
     ry="5.5825939"
     style="stroke-width:1.03219" />
  <g
     id="g1337"
     transform="matrix(1.0305753,0,0,1.0338137,-0.49827073,-14.27959)">
    <line
       class="st14"
       x1="28.799999"
       y1="327.89999"
       x2="40.099998"
       y2="375.29999"
       id="line1329" />
    <g
       id="g1335">
      <line
         class="st10"
         x1="28.799999"
         y1="327.89999"
         x2="38.799999"
         y2="370.10001"
         id="line1331" />
      <polygon
         class="st12"
         points="40.1,375.3 40.3,368.6 36.9,369.4 "
         id="polygon1333" />
    </g>
  </g>
  <g
     id="g1347"
     transform="matrix(1.0305753,0,0,1.0338137,-0.49827073,-14.27959)">
    <line
       class="st14"
       x1="102"
       y1="326.20001"
       x2="100.4"
       y2="374.89999"
       id="line1339" />
    <g
       id="g1345">
      <line
         class="st10"
         x1="102"
         y1="326.20001"
         x2="100.6"
         y2="369.60001"
         id="line1341" />
      <polygon
         class="st12"
         points="100.4,374.9 102.3,368.4 98.8,368.3 "
         id="polygon1343" />
    </g>
  </g>
  <g
     id="g1357"
     transform="matrix(1.0305753,0,0,1.0338137,-0.49827073,-14.27959)">
    <path
       class="st14"
       d="m 146.2,411.7 c -1,43 -2.1,85.9 -3.1,128.9"
       id="path1349" />
    <g
       id="g1355">
      <path
         class="st10"
         d="m 146.2,411.7 c -1,41.2 -2,82.4 -3,123.6"
         id="path1351" />
      <polygon
         class="st12"
         points="143.1,540.6 145,534.1 141.5,534 "
         id="polygon1353" />
    </g>
  </g>
  <g
     id="g1367"
     transform="matrix(1.0305753,0,0,1.0338137,-0.49827073,-14.27959)">
    <line
       class="st14"
       x1="160.8"
       y1="330.10001"
       x2="146.2"
       y2="376.60001"
       id="line1359" />
    <g
       id="g1365">
      <line
         class="st10"
         x1="160.8"
         y1="330.10001"
         x2="147.8"
         y2="371.5"
         id="line1361" />
      <polygon
         class="st12"
         points="146.2,376.6 149.8,370.9 146.5,369.9 "
         id="polygon1363" />
    </g>
  </g>
  <g
     id="g1377"
     transform="matrix(1.0305753,0,0,1.0338137,-0.49827073,-14.27959)">
    <path
       class="st14"
       d="m 42.1,411.7 c 4.5,8.8 8.9,17.5 13.4,26.3"
       id="path1369" />
    <g
       id="g1375">
      <path
         class="st10"
         d="m 42.1,411.7 c 3.7,7.2 7.3,14.4 11,21.6"
         id="path1371" />
      <polygon
         class="st12"
         points="55.5,438 54.1,431.4 51,433 "
         id="polygon1373" />
    </g>
  </g>
  <g
     id="g1387"
     transform="matrix(0.68183107,0.48545674,-0.53634435,0.53008839,250.83722,144.18502)">
    <path
       class="st14"
       d="m 99.8,411.7 c -1.8,19.5 -3.6,39 -5.4,58.5"
       id="path1379" />
    <g
       id="g1385">
      <path
         class="st10"
         d="m 99.8,411.7 c -1.6,17.7 -3.3,35.5 -4.9,53.2"
         id="path1381" />
      <polygon
         class="st12"
         points="94.4,470.2 96.8,463.8 93.3,463.5 "
         id="polygon1383" />
    </g>
  </g>
  <g
     id="g1397"
     transform="matrix(1.0305753,0,0,1.0338137,-0.49827073,-14.27959)">
    <path
       class="st14"
       d="m 63.1,446.7 c 9.1,8.5 18.1,16.9 27.2,25.4"
       id="path1389" />
    <g
       id="g1395">
      <path
         class="st10"
         d="m 63.1,446.7 c 7.8,7.2 15.5,14.5 23.3,21.7"
         id="path1391" />
      <polygon
         class="st12"
         points="90.3,472.1 86.7,466.4 84.4,468.9 "
         id="polygon1393" />
    </g>
  </g>
  <g
     id="g1407"
     transform="matrix(0.73883861,0.71847266,-0.72073033,0.74116027,329.24209,18.722029)"
     inkscape:transform-center-x="-25.953791"
     inkscape:transform-center-y="9.7537425">
    <path
       class="st14"
       d="m 142.5,411.2 c -14.5,20.4 -29,40.9 -43.6,61.3"
       id="path1399" />
    <g
       id="g1405">
      <path
         class="st10"
         d="M 141.02665,393.02659 102,468.2"
         id="path1401"
         sodipodi:nodetypes="cc" />
      <polygon
         class="st12"
         points="98.9,472.5 104.1,468.2 101.3,466.2 "
         id="polygon1403" />
    </g>
  </g>
  <g
     id="g1417"
     transform="matrix(1.0305753,0,0,1.0338137,-0.49827073,-14.27959)">
    <line
       class="st14"
       x1="95.599998"
       y1="480.89999"
       x2="94.400002"
       y2="540.59998"
       id="line1409" />
    <g
       id="g1415">
      <line
         class="st10"
         x1="95.599998"
         y1="480.89999"
         x2="94.5"
         y2="535.20001"
         id="line1411" />
      <polygon
         class="st12"
         points="94.4,540.6 96.3,534.1 92.8,534 "
         id="polygon1413" />
    </g>
  </g>
  <rect
     class="st1"
     x="19.907122"
     y="365.23346"
     width="172.82748"
     height="52.310974"
     id="rect1419"
     style="stroke-width:1.03219" />
  <rect
     class="st0"
     x="17.315393"
     y="434.7395"
     width="172.82748"
     height="17.884975"
     id="rect1421"
     style="stroke-width:1.03219" />
  <path
     class="st2"
     d="M219.2,492.6"
     id="path1423" />
  <rect
     class="st4"
     x="16.815393"
     y="462.82541"
     width="172.82748"
     height="22.7439"
     id="rect1425"
     style="stroke-width:1.03219" />
  <ellipse
     class="st2"
     cx="148.62598"
     cy="405.3454"
     id="circle1427"
     rx="5.5651069"
     ry="5.5825939"
     style="stroke-width:1.03219" />
  <text
     class="st13"
     transform="scale(0.99843256,1.0015699)"
     id="text1431"
     x="146.58847"
     y="408.52911"
     style="stroke-width:1.03219"><tspan
       x="146.58847"
       y="408.52911"
       id="tspan1429"
       style="stroke-width:1.03219">$t$</tspan></text>
  <ellipse
     class="st2"
     cx="103.28066"
     cy="378.87976"
     id="circle1433"
     rx="5.5651069"
     ry="5.5825939"
     style="stroke-width:1.03219" />
  <text
     class="st13"
     transform="scale(0.99843256,1.0015699)"
     id="text1437"
     x="101.17199"
     y="382.10498"
     style="stroke-width:1.03219"><tspan
       x="101.17199"
       y="382.10498"
       id="tspan1435"
       style="stroke-width:1.03219">$t$</tspan></text>
  <ellipse
     class="st2"
     cx="40.827797"
     cy="379.60342"
     id="circle1439"
     rx="5.5651069"
     ry="5.5825939"
     style="stroke-width:1.03219" />
  <text
     class="st13"
     transform="scale(0.99843256,1.0015699)"
     id="text1443"
     x="38.621071"
     y="382.82751"
     style="stroke-width:1.03219"><tspan
       x="38.621071"
       y="382.82751"
       id="tspan1441"
       style="stroke-width:1.03219">$t$</tspan></text>
  <g
     id="g1453"
     transform="matrix(1.0305753,0,0,1.0338137,-0.49827073,-14.27959)">
    <line
       class="st14"
       x1="100.6"
       y1="385.70001"
       x2="100.1"
       y2="400.89999"
       id="line1445" />
    <g
       id="g1451">
      <line
         class="st10"
         x1="100.6"
         y1="385.70001"
         x2="100.3"
         y2="395.60001"
         id="line1447" />
      <polygon
         class="st12"
         points="100.1,400.9 102.1,394.5 98.6,394.4 "
         id="polygon1449" />
    </g>
  </g>
  <g
     id="g1463"
     transform="matrix(1.0305753,0,0,1.0338137,-0.49827073,-14.27959)">
    <line
       class="st14"
       x1="40.099998"
       y1="386.39999"
       x2="41.5"
       y2="401.79999"
       id="line1455" />
    <g
       id="g1461">
      <line
         class="st10"
         x1="40.099998"
         y1="386.39999"
         x2="41"
         y2="396.5"
         id="line1457" />
      <polygon
         class="st12"
         points="41.5,401.8 42.6,395.1 39.2,395.5 "
         id="polygon1459" />
    </g>
  </g>
  <g
     id="g1473"
     transform="matrix(1.0305753,0,0,1.0338137,-0.49827073,-14.27959)">
    <line
       class="st14"
       x1="146"
       y1="385.5"
       x2="144.7"
       y2="400.60001"
       id="line1465" />
    <g
       id="g1471">
      <line
         class="st10"
         x1="146"
         y1="385.5"
         x2="145.2"
         y2="395.29999"
         id="line1467" />
      <polygon
         class="st12"
         points="144.7,400.6 147,394.2 143.5,393.9 "
         id="polygon1469" />
    </g>
  </g>
  <path
     class="st3"
     d="M 374.5,120.7"
     id="path1475" />
  <path
     class="st10"
     d="m 418.5,95.9 -38.3,76 0.2,0.2 12.2,17.8 75,0.6 c 4.4,-6.4 8.9,-12.9 13.3,-19.3 C 467.7,146.1 454.5,121 441.2,95.9 Z"
     id="path1477" />
  <circle
     class="st8"
     cx="384.60001"
     cy="180.5"
     r="24.1"
     id="circle1479" />
  <path
     class="st10"
     d="m 518.9,299.1 -52.3,108.1 30.9,47.2 73.9,1.1"
     id="path1481" />
  <ellipse
     class="st7"
     cx="484.10001"
     cy="423.89999"
     rx="60.5"
     ry="63.099998"
     id="ellipse1483" />
  <line
     class="st11"
     x1="357.60001"
     y1="398.79999"
     x2="357.60001"
     y2="478.10001"
     id="line1509" />
  <path
     class="st9"
     d="m 379.7,171.6 c 4.4,6.3 8.8,12.6 13.2,18.9"
     id="path1511" />
  <path
     class="st9"
     d="m 357.6,398.3 c 0,26.6 0,53.2 0,79.9"
     id="path1513" />
  <circle
     class="st5"
     cx="357.60001"
     cy="438.70001"
     r="2.9000001"
     id="circle1515" />
  <line
     class="st11"
     x1="465.89999"
     y1="406.89999"
     x2="497.5"
     y2="454.5"
     id="line1517" />
  <path
     class="st9"
     d="m 465.7,406.6 c 10.6,16 21.2,32 31.8,47.9"
     id="path1519" />
  <path
     class="st5"
     d="m 480.1,432.4 c -0.6,-1 -0.4,-2.4 0.5,-3.3 0.9,-0.9 2.2,-0.7 2.8,0.2 0.6,0.9 0.4,2.4 -0.5,3.3 -0.9,0.9 -2.2,0.7 -2.8,-0.2"
     id="path1521" />
  <circle
     class="st5"
     cx="385.39999"
     cy="179.7"
     r="2.0999999"
     id="circle1523" />
  <path
     class="st5"
     d="M 371.3,437"
     id="path1525" />
  <path
     class="st5"
     d="M 473.1,286.8"
     id="path1527" />
  <g
     id="g1533"
     transform="translate(58,6)">
    <path
       class="st10"
       d="m 331.9,198 c 10.4,27.3 20.9,54.4 32.3,83.5 8,20.5 16.5,42.1 30.6,70 1,2 2,3.9 2.9,5.6"
       id="path1529" />
    <path
       class="st12"
       d="m 400.5,362.6 c -2.2,-2 -5.5,-4.3 -8.2,-5.4 l 5,-0.7 3.4,-3.7 c -0.7,2.8 -0.7,6.8 -0.3,9.8 z"
       id="path1531" />
  </g>
  <path
     class="st10"
     d="m 469.7,432.6 c -29.5,0.4 -59,0.8 -88.5,1.2"
     id="path1535" />
  <path
     class="st6"
     d="M 417.5,433.7"
     id="path1537" />
  <path
     class="st10"
     d="m 469.7,436.4 c -29.5,0.4 -59,0.8 -88.5,1.2"
     id="path1539" />
  <text
     xml:space="preserve"
     style="font-size:8px;line-height:1.25;font-family:Sans;-inkscape-font-specification:'Sans, Normal';font-variant-ligatures:none"
     x="196.53951"
     y="112.44178"
     id="text3407"><tspan
       sodipodi:role="line"
       id="tspan3405"
       x="196.53951"
       y="112.44178">$\pl=1$</tspan></text>
  <text
     xml:space="preserve"
     style="font-size:8px;line-height:1.25;font-family:Sans;-inkscape-font-specification:'Sans, Normal';font-variant-ligatures:none"
     x="199.65424"
     y="153.55621"
     id="text7149"><tspan
       sodipodi:role="line"
       id="tspan7147"
       x="199.65424"
       y="153.55621">$\pl=2$</tspan></text>
  <text
     xml:space="preserve"
     style="font-size:8px;line-height:1.25;font-family:Sans;-inkscape-font-specification:'Sans, Normal';font-variant-ligatures:none"
     x="200.90013"
     y="183.14616"
     id="text10035"><tspan
       sodipodi:role="line"
       id="tspan10033"
       x="200.90013"
       y="183.14616">$\pl=3$</tspan></text>
  <text
     xml:space="preserve"
     style="font-size:8px;line-height:1.25;font-family:Sans;-inkscape-font-specification:'Sans, Normal';font-variant-ligatures:none"
     x="349.07178"
     y="114.81882"
     id="text14515"><tspan
       sodipodi:role="line"
       id="tspan14513"
       x="349.07178"
       y="114.81882">$\mathlarger{S_1}$</tspan></text>
  <path
     style="fill:none;stroke:#000000;stroke-width:1px;stroke-linecap:butt;stroke-linejoin:miter;stroke-opacity:1;marker-end:url(#Arrow1Lend)"
     d="m 350,121.375 c 0,0 -24.56155,28.24848 -14.31155,41.62348 10.25,13.375 45.79378,16.4623 45.79378,16.4623"
     id="path20598"
     sodipodi:nodetypes="csc" />
  <path
     style="fill:none;stroke:#000000;stroke-width:1px;stroke-linecap:butt;stroke-linejoin:miter;stroke-opacity:1;marker-end:url(#Arrow1Lend-9)"
     d="m 309.98623,385.57528 c 0,0 -24.56155,28.24848 -14.31155,41.62348 10.25,13.375 58.16815,12.04288 58.16815,12.04288"
     id="path20598-8"
     sodipodi:nodetypes="csc" />
  <text
     xml:space="preserve"
     style="font-size:8px;line-height:1.25;font-family:Sans;-inkscape-font-specification:'Sans, Normal';font-variant-ligatures:none"
     x="309.21262"
     y="379.03436"
     id="text26816"><tspan
       sodipodi:role="line"
       id="tspan26814"
       x="309.21262"
       y="379.03436">$\mathlarger{S'_2}$</tspan></text>
  <text
     xml:space="preserve"
     style="font-size:8px;line-height:1.25;font-family:Sans;-inkscape-font-specification:'Sans, Normal';font-variant-ligatures:none"
     x="345.60095"
     y="504.66104"
     id="text54499"><tspan
       sodipodi:role="line"
       id="tspan54497"
       x="345.60095"
       y="504.66104">$\wt\Delta^1$</tspan></text>
  <text
     xml:space="preserve"
     style="font-size:8px;line-height:1.25;font-family:Sans;-inkscape-font-specification:'Sans, Normal';font-variant-ligatures:none"
     x="426.7562"
     y="213.35905"
     id="text58001"><tspan
       sodipodi:role="line"
       id="tspan57999"
       x="426.7562"
       y="213.35905">$\wt\Delta^2$</tspan></text>
  <text
     xml:space="preserve"
     style="font-size:8px;line-height:1.25;font-family:Sans;-inkscape-font-specification:'Sans, Normal';font-variant-ligatures:none"
     x="426.22583"
     y="235.10258"
     id="text71681"><tspan
       sodipodi:role="line"
       id="tspan71679"
       x="426.22583"
       y="235.10258">$c_\Delta(S_1)=2$</tspan></text>
  <path
     style="fill:none;stroke:#000000;stroke-width:1.03219;stroke-linecap:butt;stroke-linejoin:miter;stroke-miterlimit:4;stroke-dasharray:1.03219, 2.06439;stroke-dashoffset:0;stroke-opacity:1"
     d="M 20.113235,392.0092 192.21932,391.23383"
     id="path73742" />
  <text
     xml:space="preserve"
     style="font-size:8px;line-height:1.25;font-family:Sans;-inkscape-font-specification:'Sans, Normal';font-variant-ligatures:none"
     x="201.75"
     y="382.25"
     id="text75540"><tspan
       sodipodi:role="line"
       id="tspan75538"
       x="201.75"
       y="382.25">$\ell=1$</tspan></text>
  <text
     xml:space="preserve"
     style="font-size:8px;line-height:1.25;font-family:Sans;-inkscape-font-specification:'Sans, Normal';font-variant-ligatures:none"
     x="210.5"
     y="409.5"
     id="text81040"><tspan
       sodipodi:role="line"
       id="tspan81038" /></text>
  <text
     xml:space="preserve"
     style="font-size:8px;line-height:1.25;font-family:Sans;-inkscape-font-specification:'Sans, Normal';font-variant-ligatures:none"
     x="204"
     y="408.75"
     id="text83968"><tspan
       sodipodi:role="line"
       id="tspan83966"
       x="204"
       y="408.75">$\ell=2$</tspan></text>
  <text
     xml:space="preserve"
     style="font-size:8px;line-height:1.25;font-family:Sans;-inkscape-font-specification:'Sans, Normal';font-variant-ligatures:none"
     x="201"
     y="446"
     id="text85468"><tspan
       sodipodi:role="line"
       id="tspan85466"
       x="201"
       y="446">$\ell=3$</tspan></text>
  <text
     xml:space="preserve"
     style="font-size:8px;line-height:1.25;font-family:Sans;-inkscape-font-specification:'Sans, Normal';font-variant-ligatures:none"
     x="204.25"
     y="475.25"
     id="text86450"><tspan
       sodipodi:role="line"
       id="tspan86448"
       x="204.25"
       y="475.25">$\ell=4$</tspan></text>
  <ellipse
     class="st2"
     cx="105.625"
     cy="626.875"
     id="circle1503-4"
     rx="8.8935623"
     ry="8.6610489"
     style="fill:#ffffff;stroke:#231f20;stroke-width:1.62528;stroke-miterlimit:10" />
  <text
     xml:space="preserve"
     style="font-size:8px;line-height:1.25;font-family:Sans;-inkscape-font-specification:'Sans, Normal';font-variant-ligatures:none"
     x="102.5"
     y="629.5"
     id="text102344"><tspan
       sodipodi:role="line"
       id="tspan102342"
       x="102.5"
       y="629.5">$t$</tspan></text>
  <text
     xml:space="preserve"
     style="font-size:8px;line-height:1.25;font-family:Sans;-inkscape-font-specification:'Sans, Normal';font-variant-ligatures:none"
     x="129"
     y="630.25"
     id="text104556"><tspan
       sodipodi:role="line"
       id="tspan104554"
       x="129"
       y="630.25">$\text{Denotes a trivial vertex.}$</tspan></text>
  <text
     xml:space="preserve"
     style="font-size:8px;line-height:1.25;font-family:Sans;-inkscape-font-specification:'Sans, Normal';font-variant-ligatures:none"
     x="36"
     y="275"
     id="text112140"><tspan
       sodipodi:role="line"
       id="tspan112138"
       x="36"
       y="275">$\text{Simplicially Enriched tree } T \text{ input for construction}$</tspan></text>
  <text
     xml:space="preserve"
     style="font-size:8px;line-height:1.25;font-family:Sans;-inkscape-font-specification:'Sans, Normal';font-variant-ligatures:none"
     x="58.75"
     y="584"
     id="text121426"><tspan
       sodipodi:role="line"
       id="tspan121424" /></text>
  <text
     xml:space="preserve"
     style="font-size:8px;line-height:1.25;font-family:Sans;-inkscape-font-specification:'Sans, Normal';font-variant-ligatures:none"
     x="40"
     y="585"
     id="text125522"><tspan
       sodipodi:role="line"
       id="tspan125520"
       x="40"
       y="585">$\text{Leveled tree }T' \text{ output from construction}$</tspan></text>
</svg>
